<svg width="930" height="44" viewBox="0 0 930 44" fill="none" xmlns="http://www.w3.org/2000/svg">
<path d="M10.481 3.21631C7.7902 3.21631 5.68532 3.9821 4.16634 5.51367C2.64736 7.00149 1.51898 9.40826 0.781189 12.734C0.73779 12.8215 0.585892 12.8652 0.325496 12.8652C0.108499 12.8652 0 12.8215 0 12.734C0.173598 11.4649 0.368895 9.45201 0.585892 6.69518C0.802889 3.93834 0.911388 1.85977 0.911388 0.459475C0.911388 0.240678 1.04159 0.13128 1.30198 0.13128C1.56238 0.13128 1.69258 0.240678 1.69258 0.459475C1.69258 1.42218 2.88606 1.90353 5.27303 1.90353C8.96198 2.03481 13.3236 2.10045 18.358 2.10045C20.9185 2.10045 23.631 2.05669 26.4953 1.96917L30.9221 1.90353C32.5279 1.90353 33.6996 1.79413 34.4374 1.57533C35.1752 1.35654 35.6526 0.918946 35.8696 0.262556C35.913 0.0875188 36.0432 0 36.2602 0C36.5206 0 36.6508 0.0875188 36.6508 0.262556C36.5206 1.48782 36.3687 3.45699 36.1951 6.17007C36.0649 8.88314 35.9998 11.0711 35.9998 12.734C35.9998 12.8215 35.8696 12.8652 35.6092 12.8652C35.3922 12.8652 35.2837 12.8215 35.2837 12.734C34.9799 9.3645 34.1119 6.93585 32.6798 5.44804C31.2476 3.96022 29.121 3.21631 26.3001 3.21631C24.6943 3.21631 23.5442 3.32571 22.8498 3.54451C22.1554 3.71954 21.678 4.0915 21.4176 4.66037C21.1572 5.18548 21.027 6.08255 21.027 7.35156V37.6111C21.027 38.9677 21.1572 39.9523 21.4176 40.5649C21.7214 41.1775 22.2856 41.5932 23.1102 41.812C23.9348 42.0308 25.2585 42.1402 27.0812 42.1402C27.168 42.1402 27.2114 42.2715 27.2114 42.5341C27.2114 42.7966 27.168 42.9279 27.0812 42.9279C25.5623 42.9279 24.3688 42.906 23.5008 42.8623L18.358 42.7966L13.3453 42.8623C12.4773 42.906 11.2621 42.9279 9.69977 42.9279C9.56957 42.9279 9.50447 42.7966 9.50447 42.5341C9.50447 42.2715 9.56957 42.1402 9.69977 42.1402C11.4791 42.1402 12.7811 42.0308 13.6057 41.812C14.4303 41.5932 14.9945 41.1775 15.2983 40.5649C15.6021 39.9085 15.754 38.9239 15.754 37.6111V7.22029C15.754 5.99503 15.6238 5.11984 15.3634 4.59473C15.103 4.02586 14.6256 3.65391 13.9312 3.47887C13.2368 3.30383 12.0867 3.21631 10.481 3.21631Z" fill="#774F4D"/>
<path d="M86.1729 42.1402C86.3031 42.1402 86.3682 42.2715 86.3682 42.5341C86.3682 42.7966 86.3031 42.9279 86.1729 42.9279C84.7842 42.9279 83.6775 42.906 82.8529 42.8623L78.1657 42.7966L73.0229 42.8623C72.2851 42.906 71.2652 42.9279 69.9633 42.9279C69.8331 42.9279 69.768 42.7966 69.768 42.5341C69.768 42.2715 69.8331 42.1402 69.9633 42.1402C71.6124 42.1402 72.8276 42.0308 73.6088 41.812C74.39 41.5932 74.9108 41.1775 75.1712 40.5649C75.4316 39.9085 75.5618 38.9239 75.5618 37.6111V22.3173H51.8657V37.6111C51.8657 38.9239 51.9959 39.9085 52.2563 40.5649C52.5167 41.1775 53.0375 41.5932 53.8187 41.812C54.5999 42.0308 55.815 42.1402 57.4642 42.1402C57.551 42.1402 57.5944 42.2715 57.5944 42.5341C57.5944 42.7966 57.551 42.9279 57.4642 42.9279C56.0754 42.9279 54.9688 42.906 54.1442 42.8623L49.1315 42.7966L44.5095 42.8623C43.6849 42.906 42.5565 42.9279 41.1243 42.9279C41.0375 42.9279 40.9941 42.7966 40.9941 42.5341C40.9941 42.2715 41.0375 42.1402 41.1243 42.1402C42.7301 42.1402 43.9019 42.0308 44.6397 41.812C45.4209 41.5932 45.9417 41.1775 46.2021 40.5649C46.5059 39.9085 46.6578 38.9239 46.6578 37.6111V7.22029C46.6578 5.90751 46.5276 4.94481 46.2672 4.33218C46.0068 3.71954 45.5077 3.30383 44.7699 3.08503C44.0321 2.82248 42.8603 2.6912 41.2545 2.6912C41.1243 2.6912 41.0592 2.55992 41.0592 2.29737C41.0592 2.03481 41.1243 1.90353 41.2545 1.90353L44.5746 1.96917C46.3974 2.05669 47.9164 2.10045 49.1315 2.10045C50.5203 2.10045 52.2129 2.05669 54.2093 1.96917L57.4642 1.90353C57.551 1.90353 57.5944 2.03481 57.5944 2.29737C57.5944 2.55992 57.551 2.6912 57.4642 2.6912C55.8584 2.6912 54.665 2.82248 53.8838 3.08503C53.1026 3.34759 52.5601 3.80706 52.2563 4.46345C51.9959 5.07608 51.8657 6.03879 51.8657 7.35156V20.8076H75.5618V7.35156C75.5618 6.03879 75.4099 5.07608 75.1061 4.46345C74.8457 3.80706 74.3249 3.34759 73.5437 3.08503C72.8059 2.82248 71.6124 2.6912 69.9633 2.6912C69.8331 2.6912 69.768 2.55992 69.768 2.29737C69.768 2.03481 69.8331 1.90353 69.9633 1.90353L73.0229 1.96917C75.0193 2.05669 76.7336 2.10045 78.1657 2.10045C79.3809 2.10045 80.9433 2.05669 82.8529 1.96917L86.1729 1.90353C86.3031 1.90353 86.3682 2.03481 86.3682 2.29737C86.3682 2.55992 86.3031 2.6912 86.1729 2.6912C84.5672 2.6912 83.3954 2.82248 82.6576 3.08503C81.9198 3.30383 81.399 3.71954 81.0952 4.33218C80.8348 4.94481 80.7046 5.90751 80.7046 7.22029V37.6111C80.7046 38.9239 80.8348 39.9085 81.0952 40.5649C81.399 41.1775 81.9198 41.5932 82.6576 41.812C83.3954 42.0308 84.5672 42.1402 86.1729 42.1402Z" fill="#774F4D"/>
<path d="M119.878 32.9508C119.878 32.8633 119.964 32.8195 120.138 32.8195C120.268 32.8195 120.377 32.8633 120.463 32.9508C120.594 32.9945 120.659 33.0383 120.659 33.082C120.225 36.2327 120.008 39.1865 120.008 41.9433C120.008 42.2934 119.943 42.5559 119.812 42.731C119.682 42.8623 119.422 42.9279 119.031 42.9279H91.299C91.1688 42.9279 91.1037 42.7966 91.1037 42.5341C91.1037 42.2715 91.1688 42.1402 91.299 42.1402C92.8614 42.1402 93.9897 42.0308 94.6841 41.812C95.3785 41.5932 95.8559 41.1775 96.1163 40.5649C96.3767 39.9085 96.5069 38.9239 96.5069 37.6111V7.22029C96.5069 5.90751 96.3767 4.94481 96.1163 4.33218C95.8559 3.71954 95.3568 3.30383 94.619 3.08503C93.9247 2.82248 92.818 2.6912 91.299 2.6912C91.1688 2.6912 91.1037 2.55992 91.1037 2.29737C91.1037 2.03481 91.1688 1.90353 91.299 1.90353H117.859C118.293 1.90353 118.51 2.10045 118.51 2.49428L118.641 10.7648C118.641 10.8961 118.51 10.9836 118.25 11.0273C118.033 11.0273 117.903 10.9617 117.859 10.8304C117.556 8.42367 116.709 6.60766 115.321 5.3824C113.932 4.11338 112.109 3.47887 109.852 3.47887H106.532C104.623 3.47887 103.342 3.7633 102.691 4.33218C102.04 4.85729 101.715 5.90751 101.715 7.48285V20.8076H108.876C111.089 20.8076 112.717 20.4356 113.758 19.6917C114.8 18.904 115.321 17.7006 115.321 16.0816C115.321 15.994 115.429 15.9503 115.646 15.9503C115.906 15.9503 116.037 15.994 116.037 16.0816L115.972 21.5952L116.037 24.549C116.123 25.9493 116.167 27.0433 116.167 27.8309C116.167 27.9184 116.037 27.9622 115.776 27.9622C115.516 27.9622 115.386 27.9184 115.386 27.8309C115.386 25.9493 114.843 24.5709 113.758 23.6957C112.717 22.7767 111.024 22.3173 108.68 22.3173H101.715V37.3486C101.715 38.9239 101.997 39.996 102.561 40.5649C103.169 41.1338 104.362 41.4182 106.142 41.4182H110.373C112.847 41.4182 114.887 40.6962 116.492 39.2521C118.142 37.7643 119.27 35.6638 119.878 32.9508Z" fill="#774F4D"/>
<path d="M186.237 42.1402C186.368 42.1402 186.433 42.2715 186.433 42.5341C186.433 42.7966 186.368 42.9279 186.237 42.9279C184.849 42.9279 183.742 42.906 182.917 42.8623L178.23 42.7966L173.087 42.8623C172.35 42.906 171.33 42.9279 170.028 42.9279C169.898 42.9279 169.832 42.7966 169.832 42.5341C169.832 42.2715 169.898 42.1402 170.028 42.1402C171.677 42.1402 172.892 42.0308 173.673 41.812C174.454 41.5932 174.975 41.1775 175.236 40.5649C175.496 39.9085 175.626 38.9239 175.626 37.6111V22.3173H151.93V37.6111C151.93 38.9239 152.06 39.9085 152.321 40.5649C152.581 41.1775 153.102 41.5932 153.883 41.812C154.664 42.0308 155.88 42.1402 157.529 42.1402C157.615 42.1402 157.659 42.2715 157.659 42.5341C157.659 42.7966 157.615 42.9279 157.529 42.9279C156.14 42.9279 155.033 42.906 154.209 42.8623L149.196 42.7966L144.574 42.8623C143.749 42.906 142.621 42.9279 141.189 42.9279C141.102 42.9279 141.059 42.7966 141.059 42.5341C141.059 42.2715 141.102 42.1402 141.189 42.1402C142.795 42.1402 143.966 42.0308 144.704 41.812C145.485 41.5932 146.006 41.1775 146.267 40.5649C146.57 39.9085 146.722 38.9239 146.722 37.6111V7.22029C146.722 5.90751 146.592 4.94481 146.332 4.33218C146.071 3.71954 145.572 3.30383 144.834 3.08503C144.097 2.82248 142.925 2.6912 141.319 2.6912C141.189 2.6912 141.124 2.55992 141.124 2.29737C141.124 2.03481 141.189 1.90353 141.319 1.90353L144.639 1.96917C146.462 2.05669 147.981 2.10045 149.196 2.10045C150.585 2.10045 152.277 2.05669 154.274 1.96917L157.529 1.90353C157.615 1.90353 157.659 2.03481 157.659 2.29737C157.659 2.55992 157.615 2.6912 157.529 2.6912C155.923 2.6912 154.729 2.82248 153.948 3.08503C153.167 3.34759 152.625 3.80706 152.321 4.46345C152.06 5.07608 151.93 6.03879 151.93 7.35156V20.8076H175.626V7.35156C175.626 6.03879 175.474 5.07608 175.171 4.46345C174.91 3.80706 174.389 3.34759 173.608 3.08503C172.87 2.82248 171.677 2.6912 170.028 2.6912C169.898 2.6912 169.832 2.55992 169.832 2.29737C169.832 2.03481 169.898 1.90353 170.028 1.90353L173.087 1.96917C175.084 2.05669 176.798 2.10045 178.23 2.10045C179.445 2.10045 181.008 2.05669 182.917 1.96917L186.237 1.90353C186.368 1.90353 186.433 2.03481 186.433 2.29737C186.433 2.55992 186.368 2.6912 186.237 2.6912C184.632 2.6912 183.46 2.82248 182.722 3.08503C181.984 3.30383 181.463 3.71954 181.16 4.33218C180.899 4.94481 180.769 5.90751 180.769 7.22029V37.6111C180.769 38.9239 180.899 39.9085 181.16 40.5649C181.463 41.1775 181.984 41.5932 182.722 41.812C183.46 42.0308 184.632 42.1402 186.237 42.1402Z" fill="#774F4D"/>
<path d="M212.39 43.7156C208.354 43.7156 204.752 42.7747 201.584 40.8931C198.459 38.9677 196.029 36.3859 194.293 33.1477C192.6 29.8657 191.754 26.2994 191.754 22.4485C191.754 17.9413 192.882 14.0905 195.139 10.8961C197.396 7.65788 200.282 5.22924 203.797 3.61014C207.356 1.99105 210.98 1.1815 214.669 1.1815C218.792 1.1815 222.416 2.16609 225.541 4.13526C228.665 6.06067 231.052 8.62059 232.701 11.815C234.394 15.0094 235.24 18.4008 235.24 21.9891C235.24 25.9712 234.199 29.6251 232.116 32.9508C230.032 36.2765 227.233 38.902 223.718 40.8274C220.246 42.7529 216.47 43.7156 212.39 43.7156ZM214.669 42.2715C217.447 42.2715 219.942 41.5495 222.155 40.1054C224.369 38.6614 226.105 36.5609 227.363 33.8041C228.665 31.0035 229.316 27.6778 229.316 23.827C229.316 19.7573 228.6 16.1253 227.168 12.9309C225.779 9.73645 223.761 7.24217 221.114 5.44804C218.51 3.6539 215.472 2.75684 212 2.75684C207.486 2.75684 203.971 4.31029 201.454 7.41721C198.937 10.4804 197.678 14.725 197.678 20.1512C197.678 24.3083 198.394 28.0716 199.826 31.4411C201.259 34.8105 203.255 37.458 205.815 39.3834C208.419 41.3088 211.371 42.2715 214.669 42.2715Z" fill="#774F4D"/>
<path d="M275.642 9.51765C275.642 7.28593 275.143 5.60119 274.145 4.46345C273.19 3.28195 271.758 2.6912 269.849 2.6912C269.718 2.6912 269.653 2.55992 269.653 2.29737C269.653 2.03481 269.718 1.90353 269.849 1.90353L272.778 1.96917C274.34 2.05669 275.577 2.10045 276.489 2.10045C277.27 2.10045 278.398 2.05669 279.874 1.96917L282.673 1.90353C282.76 1.90353 282.803 2.03481 282.803 2.29737C282.803 2.55992 282.76 2.6912 282.673 2.6912C279.158 2.6912 277.4 4.96668 277.4 9.51765V28.0278C277.4 32.9289 275.968 36.7797 273.104 39.5803C270.283 42.3809 266.507 43.7812 261.776 43.7812C258.565 43.7812 255.744 43.1686 253.313 41.9433C250.883 40.6743 248.995 38.8802 247.65 36.5609C246.304 34.1979 245.632 31.4411 245.632 28.2904V7.22029C245.632 5.90751 245.502 4.94481 245.241 4.33218C244.981 3.71954 244.482 3.30383 243.744 3.08503C243.049 2.82248 241.921 2.6912 240.359 2.6912C240.228 2.6912 240.163 2.55992 240.163 2.29737C240.163 2.03481 240.228 1.90353 240.359 1.90353L243.614 1.96917C245.523 2.05669 247.042 2.10045 248.171 2.10045C249.386 2.10045 250.948 2.05669 252.858 1.96917L255.982 1.90353C256.113 1.90353 256.178 2.03481 256.178 2.29737C256.178 2.55992 256.113 2.6912 255.982 2.6912C254.464 2.6912 253.335 2.82248 252.597 3.08503C251.903 3.34759 251.426 3.80706 251.165 4.46345C250.905 5.07608 250.775 6.03879 250.775 7.35156V25.993C250.775 31.1566 251.881 35.0731 254.095 37.7424C256.351 40.368 259.498 41.6808 263.534 41.6808C267.31 41.6808 270.261 40.4993 272.387 38.1362C274.557 35.7295 275.642 32.3819 275.642 28.0935V9.51765Z" fill="#774F4D"/>
<path d="M293.441 9.2551C293.441 10.918 293.853 12.3839 294.678 13.6529C295.502 14.8782 296.501 15.9503 297.672 16.8692C298.844 17.7444 300.472 18.8165 302.555 20.0855C304.725 21.4421 306.439 22.6236 307.698 23.63C309 24.5927 310.106 25.7961 311.018 27.2402C311.929 28.6842 312.385 30.3909 312.385 32.36C312.385 34.5042 311.821 36.4515 310.692 38.2019C309.607 39.9085 308.023 41.265 305.94 42.2715C303.9 43.2342 301.513 43.7156 298.779 43.7156C297.043 43.7156 295.329 43.4968 293.636 43.0592C291.944 42.6653 290.468 42.0746 289.209 41.2869C288.992 41.1556 288.841 41.0025 288.754 40.8274C288.667 40.6524 288.624 40.3899 288.624 40.0398L287.973 30.6534C287.929 30.4784 288.016 30.369 288.233 30.3252C288.493 30.2815 288.645 30.3471 288.689 30.5221C289.73 33.8478 291.184 36.6703 293.05 38.9896C294.917 41.3088 297.347 42.4684 300.341 42.4684C302.381 42.4684 304.074 41.9214 305.419 40.8274C306.808 39.6897 307.502 37.8518 307.502 35.3138C307.502 33.3884 307.068 31.7036 306.2 30.2596C305.332 28.8155 304.269 27.6121 303.01 26.6494C301.795 25.643 300.146 24.5052 298.063 23.2362C296.023 21.9234 294.396 20.8076 293.181 19.8886C292.009 18.9259 291.011 17.7663 290.186 16.4097C289.361 15.0094 288.949 13.3904 288.949 11.5525C288.949 9.32074 289.535 7.41721 290.707 5.84187C291.922 4.26654 293.484 3.10691 295.394 2.363C297.347 1.57534 299.387 1.1815 301.513 1.1815C304.421 1.1815 307.047 1.68473 309.39 2.6912C310.041 2.95375 310.367 3.34759 310.367 3.8727L310.692 12.0776C310.692 12.2526 310.584 12.362 310.367 12.4058C310.15 12.4495 310.02 12.3839 309.976 12.2089C309.499 9.84585 308.479 7.61412 306.916 5.51367C305.354 3.36947 303.141 2.29737 300.276 2.29737C298.106 2.29737 296.414 2.95376 295.199 4.26653C294.027 5.57931 293.441 7.24217 293.441 9.2551Z" fill="#774F4D"/>
<path d="M347.279 32.9508C347.279 32.8633 347.366 32.8195 347.54 32.8195C347.67 32.8195 347.779 32.8633 347.865 32.9508C347.996 32.9945 348.061 33.0383 348.061 33.082C347.627 36.2327 347.41 39.1865 347.41 41.9433C347.41 42.2934 347.345 42.5559 347.214 42.731C347.084 42.8623 346.824 42.9279 346.433 42.9279H318.701C318.571 42.9279 318.506 42.7966 318.506 42.5341C318.506 42.2715 318.571 42.1402 318.701 42.1402C320.263 42.1402 321.392 42.0308 322.086 41.812C322.78 41.5932 323.258 41.1775 323.518 40.5649C323.779 39.9085 323.909 38.9239 323.909 37.6111V7.22029C323.909 5.90751 323.779 4.94481 323.518 4.33218C323.258 3.71954 322.759 3.30383 322.021 3.08503C321.327 2.82248 320.22 2.6912 318.701 2.6912C318.571 2.6912 318.506 2.55992 318.506 2.29737C318.506 2.03481 318.571 1.90353 318.701 1.90353H345.261C345.695 1.90353 345.912 2.10045 345.912 2.49428L346.043 10.7648C346.043 10.8961 345.912 10.9836 345.652 11.0273C345.435 11.0273 345.305 10.9617 345.261 10.8304C344.958 8.42367 344.111 6.60766 342.722 5.3824C341.334 4.11338 339.511 3.47887 337.254 3.47887H333.934C332.025 3.47887 330.744 3.7633 330.093 4.33218C329.442 4.85729 329.117 5.90751 329.117 7.48285V20.8076H336.278C338.491 20.8076 340.119 20.4356 341.16 19.6917C342.202 18.904 342.722 17.7006 342.722 16.0816C342.722 15.994 342.831 15.9503 343.048 15.9503C343.308 15.9503 343.439 15.994 343.439 16.0816L343.374 21.5952L343.439 24.549C343.525 25.9493 343.569 27.0433 343.569 27.8309C343.569 27.9184 343.439 27.9622 343.178 27.9622C342.918 27.9622 342.788 27.9184 342.788 27.8309C342.788 25.9493 342.245 24.5709 341.16 23.6957C340.119 22.7767 338.426 22.3173 336.082 22.3173H329.117V37.3486C329.117 38.9239 329.399 39.996 329.963 40.5649C330.571 41.1338 331.764 41.4182 333.544 41.4182H337.775C340.249 41.4182 342.288 40.6962 343.894 39.2521C345.543 37.7643 346.672 35.6638 347.279 32.9508Z" fill="#774F4D"/>
<path d="M390.269 43.7156C386.233 43.7156 382.63 42.7747 379.462 40.8931C376.338 38.9677 373.907 36.3859 372.171 33.1477C370.479 29.8657 369.632 26.2994 369.632 22.4485C369.632 17.9413 370.761 14.0905 373.017 10.8961C375.274 7.65788 378.16 5.22924 381.676 3.61014C385.234 1.99105 388.858 1.1815 392.547 1.1815C396.67 1.1815 400.294 2.16609 403.419 4.13526C406.544 6.06067 408.931 8.62059 410.58 11.815C412.272 15.0094 413.119 18.4008 413.119 21.9891C413.119 25.9712 412.077 29.6251 409.994 32.9508C407.911 36.2765 405.111 38.902 401.596 40.8274C398.124 42.7529 394.348 43.7156 390.269 43.7156ZM392.547 42.2715C395.325 42.2715 397.82 41.5495 400.034 40.1054C402.247 38.6614 403.983 36.5609 405.242 33.8041C406.544 31.0035 407.195 27.6778 407.195 23.827C407.195 19.7573 406.478 16.1253 405.046 12.9309C403.658 9.73645 401.639 7.24217 398.992 5.44804C396.388 3.6539 393.35 2.75684 389.878 2.75684C385.365 2.75684 381.849 4.31029 379.332 7.41721C376.815 10.4804 375.556 14.725 375.556 20.1512C375.556 24.3083 376.272 28.0716 377.705 31.4411C379.137 34.8105 381.133 37.458 383.694 39.3834C386.298 41.3088 389.249 42.2715 392.547 42.2715Z" fill="#774F4D"/>
<path d="M446.425 10.7648C446.425 10.8961 446.295 10.9836 446.034 11.0273C445.817 11.0273 445.687 10.9617 445.644 10.8304C445.34 8.42367 444.494 6.60766 443.105 5.3824C441.716 4.11338 439.893 3.47887 437.637 3.47887H434.316C432.45 3.47887 431.17 3.74142 430.476 4.26653C429.825 4.79165 429.499 5.79811 429.499 7.28593V21.5952H435.488C437.832 21.5952 439.546 21.2014 440.631 20.4137C441.759 19.6261 442.324 18.4446 442.324 16.8692C442.324 16.7817 442.454 16.7379 442.714 16.7379C442.975 16.7379 443.105 16.7817 443.105 16.8692L443.04 22.3829C443.04 23.6957 443.061 24.6803 443.105 25.3366L443.17 28.6186C443.17 28.7061 443.04 28.7499 442.779 28.7499C442.519 28.7499 442.389 28.7061 442.389 28.6186C442.389 26.7369 441.825 25.3585 440.696 24.4833C439.568 23.5644 437.767 23.1049 435.293 23.1049H429.499V37.3486C429.499 38.7489 429.673 39.7772 430.02 40.4336C430.41 41.0462 431.127 41.4838 432.168 41.7464C433.21 42.0089 434.859 42.1402 437.116 42.1402C437.203 42.1402 437.246 42.2715 437.246 42.5341C437.246 42.7966 437.203 42.9279 437.116 42.9279C435.336 42.9279 433.948 42.906 432.949 42.8623L426.83 42.7966L422.273 42.8623C421.449 42.906 420.298 42.9279 418.823 42.9279C418.736 42.9279 418.693 42.7966 418.693 42.5341C418.693 42.2715 418.736 42.1402 418.823 42.1402C420.429 42.1402 421.6 42.0308 422.338 41.812C423.119 41.5932 423.64 41.1775 423.901 40.5649C424.161 39.9085 424.291 38.9239 424.291 37.6111V7.22029C424.291 5.90751 424.161 4.94481 423.901 4.33218C423.64 3.71954 423.141 3.30383 422.403 3.08503C421.709 2.82248 420.602 2.6912 419.083 2.6912C418.953 2.6912 418.888 2.55992 418.888 2.29737C418.888 2.03481 418.953 1.90353 419.083 1.90353H445.644C446.078 1.90353 446.295 2.10045 446.295 2.49428L446.425 10.7648Z" fill="#774F4D"/>
<path d="M492.064 1.1815C494.06 1.1815 496.122 1.37842 498.248 1.77225C500.375 2.12233 502.068 2.62556 503.326 3.28195C503.673 3.45699 503.89 3.6539 503.977 3.8727C504.107 4.04774 504.216 4.37593 504.303 4.85728L505.019 12.7996C505.019 12.9309 504.91 13.0184 504.693 13.0622C504.476 13.0622 504.346 12.9965 504.303 12.8652C503.174 9.45201 501.33 6.91397 498.769 5.25112C496.209 3.54451 493.127 2.6912 489.525 2.6912C486.357 2.6912 483.601 3.43511 481.258 4.92292C478.914 6.36698 477.113 8.42367 475.854 11.093C474.639 13.7623 474.031 16.8473 474.031 20.3481C474.031 24.4177 474.813 28.1591 476.375 31.5724C477.937 34.9856 480.042 37.6987 482.69 39.7116C485.38 41.6808 488.31 42.6653 491.478 42.6653C497.728 42.6653 502.198 39.0552 504.888 31.8349C504.888 31.7036 504.975 31.638 505.149 31.638C505.279 31.638 505.388 31.6599 505.474 31.7036C505.605 31.7474 505.67 31.813 505.67 31.9005L504.758 39.8429C504.671 40.368 504.563 40.718 504.433 40.8931C504.346 41.0244 504.107 41.1775 503.717 41.3526C499.724 42.9279 495.644 43.7156 491.478 43.7156C486.227 43.7156 481.843 42.6653 478.328 40.5649C474.813 38.4207 472.23 35.7076 470.581 32.4257C468.932 29.1437 468.107 25.7086 468.107 22.1203C468.107 18.0507 469.214 14.4406 471.428 11.2899C473.684 8.09548 476.635 5.62307 480.281 3.8727C483.97 2.07857 487.898 1.1815 492.064 1.1815Z" fill="#774F4D"/>
<path d="M545.702 9.51765C545.702 7.28593 545.203 5.60119 544.205 4.46345C543.25 3.28195 541.818 2.6912 539.908 2.6912C539.778 2.6912 539.713 2.55992 539.713 2.29737C539.713 2.03481 539.778 1.90353 539.908 1.90353L542.838 1.96917C544.4 2.05669 545.637 2.10045 546.548 2.10045C547.33 2.10045 548.458 2.05669 549.934 1.96917L552.733 1.90353C552.82 1.90353 552.863 2.03481 552.863 2.29737C552.863 2.55992 552.82 2.6912 552.733 2.6912C549.217 2.6912 547.46 4.96668 547.46 9.51765V28.0278C547.46 32.9289 546.028 36.7797 543.163 39.5803C540.342 42.3809 536.566 43.7812 531.836 43.7812C528.624 43.7812 525.803 43.1686 523.373 41.9433C520.943 40.6743 519.055 38.8802 517.709 36.5609C516.364 34.1979 515.691 31.4411 515.691 28.2904V7.22029C515.691 5.90751 515.561 4.94481 515.301 4.33218C515.04 3.71954 514.541 3.30383 513.804 3.08503C513.109 2.82248 511.981 2.6912 510.418 2.6912C510.288 2.6912 510.223 2.55992 510.223 2.29737C510.223 2.03481 510.288 1.90353 510.418 1.90353L513.673 1.96917C515.583 2.05669 517.102 2.10045 518.23 2.10045C519.445 2.10045 521.008 2.05669 522.917 1.96917L526.042 1.90353C526.172 1.90353 526.237 2.03481 526.237 2.29737C526.237 2.55992 526.172 2.6912 526.042 2.6912C524.523 2.6912 523.395 2.82248 522.657 3.08503C521.963 3.34759 521.485 3.80706 521.225 4.46345C520.964 5.07608 520.834 6.03879 520.834 7.35156V25.993C520.834 31.1566 521.941 35.0731 524.154 37.7424C526.411 40.368 529.557 41.6808 533.594 41.6808C537.369 41.6808 540.321 40.4993 542.447 38.1362C544.617 35.7295 545.702 32.3819 545.702 28.0935V9.51765Z" fill="#774F4D"/>
<path d="M576.246 19.823C579.718 20.1293 582.518 21.3108 584.644 23.3675C586.771 25.4242 587.834 27.9403 587.834 30.916C587.834 33.2352 587.226 35.3357 586.011 37.2173C584.839 39.0552 583.212 40.5211 581.129 41.6151C579.089 42.6653 576.789 43.1904 574.228 43.1904C572.839 43.1904 571.32 43.1248 569.671 42.9935C569.064 42.9498 568.348 42.906 567.523 42.8623C566.698 42.8185 565.765 42.7966 564.724 42.7966L560.167 42.8623C559.342 42.906 558.236 42.9279 556.847 42.9279C556.717 42.9279 556.651 42.7966 556.651 42.5341C556.651 42.2715 556.717 42.1402 556.847 42.1402C558.366 42.1402 559.472 42.0308 560.167 41.812C560.905 41.5495 561.425 41.1119 561.729 40.4993C562.033 39.8866 562.185 38.9239 562.185 37.6111V7.22029C562.185 5.90751 562.033 4.94481 561.729 4.33218C561.469 3.71954 560.97 3.30383 560.232 3.08503C559.537 2.82248 558.431 2.6912 556.912 2.6912C556.825 2.6912 556.782 2.55992 556.782 2.29737C556.782 2.03481 556.825 1.90353 556.912 1.90353L560.167 1.96917C562.076 2.05669 563.595 2.10045 564.724 2.10045C565.896 2.10045 567.176 2.03481 568.565 1.90353C569.042 1.85977 569.606 1.81601 570.257 1.77225C570.952 1.72849 571.689 1.70661 572.471 1.70661C576.203 1.70661 579.046 2.49428 580.999 4.06962C582.951 5.60119 583.928 7.67976 583.928 10.3053C583.928 12.4058 583.255 14.3093 581.91 16.0159C580.565 17.6788 578.677 18.9478 576.246 19.823ZM571.234 2.82248C570.192 2.82248 569.389 2.93188 568.825 3.15067C568.304 3.36947 567.914 3.80706 567.653 4.46345C567.436 5.07608 567.328 6.03879 567.328 7.35156V19.823L570.192 19.8886C573.056 19.8886 575.205 19.0572 576.637 17.3943C578.069 15.7315 578.785 13.5435 578.785 10.8304C578.785 8.33615 578.156 6.38886 576.897 4.98856C575.682 3.54451 573.794 2.82248 571.234 2.82248ZM573.187 41.8777C576.268 41.8777 578.546 41.0681 580.022 39.449C581.541 37.8299 582.3 35.5107 582.3 32.4913C582.3 29.1656 581.389 26.4963 579.566 24.4833C577.744 22.4704 575.161 21.4421 571.82 21.3983C570.648 21.3545 569.15 21.3983 567.328 21.5296V37.6111C567.328 38.7051 567.48 39.5584 567.783 40.1711C568.087 40.7399 568.651 41.1775 569.476 41.4838C570.301 41.7464 571.537 41.8777 573.187 41.8777Z" fill="#774F4D"/>
<path d="M637.069 42.1402C637.243 42.1402 637.33 42.2715 637.33 42.5341C637.33 42.7966 637.243 42.9279 637.069 42.9279C636.245 42.9279 634.921 42.8841 633.098 42.7966C631.362 42.7091 630.082 42.6653 629.257 42.6653C628.259 42.6653 627.022 42.7091 625.547 42.7966C624.071 42.8841 622.964 42.9279 622.227 42.9279C622.053 42.9279 621.966 42.7966 621.966 42.5341C621.966 42.2715 622.053 42.1402 622.227 42.1402C623.702 42.1402 624.766 42.0089 625.417 41.7464C626.067 41.4401 626.393 40.915 626.393 40.1711C626.393 39.4271 626.067 38.3988 625.417 37.086L618.125 21.8578H606.147L600.809 34.2635C600.201 35.7076 599.898 36.911 599.898 37.8737C599.898 40.718 602.003 42.1402 606.212 42.1402C606.429 42.1402 606.538 42.2715 606.538 42.5341C606.538 42.7966 606.429 42.9279 606.212 42.9279C605.431 42.9279 604.303 42.8841 602.827 42.7966C601.178 42.7091 599.746 42.6653 598.531 42.6653C597.402 42.6653 596.057 42.7091 594.494 42.7966C593.106 42.8841 591.977 42.9279 591.109 42.9279C590.936 42.9279 590.849 42.7966 590.849 42.5341C590.849 42.2715 590.936 42.1402 591.109 42.1402C592.324 42.1402 593.344 41.8996 594.169 41.4182C595.037 40.9368 595.861 40.1054 596.643 38.9239C597.424 37.7424 598.314 35.992 599.312 33.6728L613.178 1.44406C613.221 1.31278 613.373 1.24714 613.633 1.24714C613.894 1.20338 614.046 1.26902 614.089 1.44406L629.778 33.9354C631.254 37.1298 632.512 39.2959 633.554 40.4336C634.595 41.5714 635.767 42.1402 637.069 42.1402ZM606.733 20.3481H617.409L611.811 8.53307L606.733 20.3481Z" fill="#774F4D"/>
<path d="M683.358 1.90353C683.488 1.90353 683.554 2.03481 683.554 2.29737C683.554 2.55992 683.488 2.6912 683.358 2.6912C679.799 2.6912 678.02 4.96668 678.02 9.51765V43.7812C678.02 43.8687 677.912 43.9344 677.695 43.9781C677.521 44.0219 677.391 44 677.304 43.9125L646.773 7.41721V35.3794C646.773 37.6987 647.185 39.4053 648.009 40.4993C648.877 41.5932 650.179 42.1402 651.915 42.1402C652.046 42.1402 652.111 42.2715 652.111 42.5341C652.111 42.7966 652.046 42.9279 651.915 42.9279C650.787 42.9279 649.919 42.906 649.311 42.8623L645.991 42.7966L642.476 42.8623C641.825 42.906 640.87 42.9279 639.612 42.9279C639.525 42.9279 639.481 42.7966 639.481 42.5341C639.481 42.2715 639.525 42.1402 639.612 42.1402C641.478 42.1402 642.845 41.5932 643.713 40.4993C644.624 39.4053 645.08 37.6987 645.08 35.3794V5.57932C643.17 3.6539 641.282 2.6912 639.416 2.6912C639.286 2.6912 639.221 2.55992 639.221 2.29737C639.221 2.03481 639.286 1.90353 639.416 1.90353L641.955 1.96917C642.476 2.01293 643.214 2.03481 644.169 2.03481L647.554 1.96917C647.944 1.92541 648.443 1.90353 649.051 1.90353C649.398 1.90353 649.637 1.99105 649.767 2.16609C649.941 2.29736 650.201 2.62556 650.548 3.15067C650.939 3.7633 651.481 4.48533 652.176 5.31676L676.393 34.7887V9.51765C676.393 7.19841 675.98 5.4918 675.156 4.39781C674.331 3.26007 673.051 2.6912 671.315 2.6912C671.228 2.6912 671.185 2.55992 671.185 2.29737C671.185 2.03481 671.228 1.90353 671.315 1.90353L673.919 1.96917C675.221 2.05669 676.328 2.10045 677.239 2.10045C678.02 2.10045 679.148 2.05669 680.624 1.96917L683.358 1.90353Z" fill="#774F4D"/>
<path d="M727.095 1.1815C729.091 1.1815 731.153 1.37842 733.279 1.77225C735.406 2.12233 737.098 2.62556 738.357 3.28195C738.704 3.45699 738.921 3.6539 739.008 3.8727C739.138 4.04774 739.247 4.37593 739.333 4.85728L740.049 12.7996C740.049 12.9309 739.941 13.0184 739.724 13.0622C739.507 13.0622 739.377 12.9965 739.333 12.8652C738.205 9.45201 736.36 6.91397 733.8 5.25112C731.239 3.54451 728.158 2.6912 724.556 2.6912C721.388 2.6912 718.632 3.43511 716.288 4.92292C713.945 6.36698 712.144 8.42367 710.885 11.093C709.67 13.7623 709.062 16.8473 709.062 20.3481C709.062 24.4177 709.843 28.1591 711.406 31.5724C712.968 34.9856 715.073 37.6987 717.72 39.7116C720.411 41.6808 723.341 42.6653 726.509 42.6653C732.758 42.6653 737.228 39.0552 739.919 31.8349C739.919 31.7036 740.006 31.638 740.18 31.638C740.31 31.638 740.418 31.6599 740.505 31.7036C740.635 31.7474 740.7 31.813 740.7 31.9005L739.789 39.8429C739.702 40.368 739.594 40.718 739.464 40.8931C739.377 41.0244 739.138 41.1775 738.747 41.3526C734.755 42.9279 730.675 43.7156 726.509 43.7156C721.258 43.7156 716.874 42.6653 713.359 40.5649C709.843 38.4207 707.261 35.7076 705.612 32.4257C703.963 29.1437 703.138 25.7086 703.138 22.1203C703.138 18.0507 704.245 14.4406 706.458 11.2899C708.715 8.09548 711.666 5.62307 715.312 3.8727C719.001 2.07857 722.928 1.1815 727.095 1.1815Z" fill="#774F4D"/>
<path d="M757.037 37.6111C757.037 38.9239 757.167 39.9085 757.427 40.5649C757.688 41.1775 758.165 41.5932 758.86 41.812C759.597 42.0308 760.747 42.1402 762.31 42.1402C762.397 42.1402 762.44 42.2715 762.44 42.5341C762.44 42.7966 762.397 42.9279 762.31 42.9279C760.921 42.9279 759.836 42.906 759.055 42.8623L754.368 42.7966L749.811 42.8623C748.986 42.906 747.858 42.9279 746.426 42.9279C746.339 42.9279 746.295 42.7966 746.295 42.5341C746.295 42.2715 746.339 42.1402 746.426 42.1402C747.988 42.1402 749.138 42.0308 749.876 41.812C750.614 41.5932 751.113 41.1775 751.373 40.5649C751.633 39.9085 751.764 38.9239 751.764 37.6111V7.22029C751.764 5.90751 751.633 4.94481 751.373 4.33218C751.113 3.71954 750.614 3.30383 749.876 3.08503C749.138 2.82248 747.988 2.6912 746.426 2.6912C746.339 2.6912 746.295 2.55992 746.295 2.29737C746.295 2.03481 746.339 1.90353 746.426 1.90353L749.811 1.96917C751.72 2.05669 753.239 2.10045 754.368 2.10045C755.626 2.10045 757.21 2.05669 759.12 1.96917L762.31 1.90353C762.397 1.90353 762.44 2.03481 762.44 2.29737C762.44 2.55992 762.397 2.6912 762.31 2.6912C760.791 2.6912 759.662 2.82248 758.925 3.08503C758.187 3.34759 757.688 3.80706 757.427 4.46345C757.167 5.07608 757.037 6.03879 757.037 7.35156V37.6111Z" fill="#774F4D"/>
<path d="M791.732 43.7156C787.001 43.7156 782.879 42.7966 779.363 40.9587C775.848 39.1208 773.157 36.6266 771.291 33.4759C769.425 30.3252 768.492 26.8026 768.492 22.908C768.492 18.6634 769.555 14.9 771.682 11.6181C773.851 8.33615 776.803 5.77623 780.535 3.93834C784.311 2.10045 788.542 1.1815 793.229 1.1815C795.312 1.1815 797.331 1.37842 799.284 1.77225C801.28 2.16609 802.907 2.6912 804.166 3.34759C804.513 3.56638 804.73 3.7633 804.817 3.93834C804.904 4.11338 804.969 4.41969 805.012 4.85728L805.859 12.7996C805.859 12.9309 805.728 13.0184 805.468 13.0622C805.251 13.0622 805.121 12.9965 805.077 12.8652C803.949 9.62705 802.104 7.13277 799.544 5.3824C796.983 3.63202 793.902 2.75684 790.3 2.75684C785.179 2.75684 781.229 4.33217 778.452 7.48285C775.674 10.6335 774.285 14.9657 774.285 20.4794C774.285 24.7678 775.11 28.5967 776.759 31.9662C778.408 35.2919 780.665 37.8956 783.53 39.7772C786.437 41.6589 789.714 42.5997 793.359 42.5997C795.443 42.5997 797.048 42.4028 798.177 42.0089C799.305 41.6151 800.13 40.8493 800.651 39.7116C801.171 38.5738 801.432 36.8891 801.432 34.6574C801.432 32.3819 801.28 30.8066 800.976 29.9314C800.716 29.0124 800.108 28.3998 799.153 28.0935C798.242 27.7872 796.636 27.634 794.336 27.634C794.076 27.634 793.945 27.459 793.945 27.1089C793.945 26.9776 793.967 26.8682 794.01 26.7807C794.097 26.6494 794.184 26.5838 794.271 26.5838C797.743 26.8026 800.564 26.912 802.734 26.912C804.774 26.912 806.943 26.8463 809.244 26.7151C809.33 26.7151 809.396 26.7807 809.439 26.912C809.526 26.9995 809.569 27.087 809.569 27.1745C809.569 27.4809 809.461 27.634 809.244 27.634C808.289 27.5903 807.616 27.7434 807.226 28.0935C806.835 28.3998 806.575 29.0562 806.444 30.0627C806.358 31.0691 806.314 32.8195 806.314 35.3138C806.314 37.2829 806.379 38.6832 806.51 39.5147C806.683 40.3461 806.77 40.8712 806.77 41.09C806.77 41.3526 806.705 41.5276 806.575 41.6151C806.488 41.6589 806.293 41.7464 805.989 41.8777C800.651 43.1029 795.898 43.7156 791.732 43.7156Z" fill="#774F4D"/>
<path d="M857.796 42.1402C857.97 42.1402 858.056 42.2715 858.056 42.5341C858.056 42.7966 857.97 42.9279 857.796 42.9279C856.971 42.9279 855.648 42.8841 853.825 42.7966C852.089 42.7091 850.809 42.6653 849.984 42.6653C848.986 42.6653 847.749 42.7091 846.273 42.7966C844.798 42.8841 843.691 42.9279 842.953 42.9279C842.78 42.9279 842.693 42.7966 842.693 42.5341C842.693 42.2715 842.78 42.1402 842.953 42.1402C844.429 42.1402 845.492 42.0089 846.143 41.7464C846.794 41.4401 847.12 40.915 847.12 40.1711C847.12 39.4271 846.794 38.3988 846.143 37.086L838.852 21.8578H826.874L821.536 34.2635C820.928 35.7076 820.624 36.911 820.624 37.8737C820.624 40.718 822.729 42.1402 826.939 42.1402C827.156 42.1402 827.264 42.2715 827.264 42.5341C827.264 42.7966 827.156 42.9279 826.939 42.9279C826.158 42.9279 825.029 42.8841 823.554 42.7966C821.905 42.7091 820.472 42.6653 819.257 42.6653C818.129 42.6653 816.784 42.7091 815.221 42.7966C813.832 42.8841 812.704 42.9279 811.836 42.9279C811.662 42.9279 811.576 42.7966 811.576 42.5341C811.576 42.2715 811.662 42.1402 811.836 42.1402C813.051 42.1402 814.071 41.8996 814.896 41.4182C815.764 40.9368 816.588 40.1054 817.369 38.9239C818.151 37.7424 819.04 35.992 820.038 33.6728L833.905 1.44406C833.948 1.31278 834.1 1.24714 834.36 1.24714C834.621 1.20338 834.773 1.26902 834.816 1.44406L850.505 33.9354C851.98 37.1298 853.239 39.2959 854.281 40.4336C855.322 41.5714 856.494 42.1402 857.796 42.1402ZM827.46 20.3481H838.136L832.538 8.53307L827.46 20.3481Z" fill="#774F4D"/>
<path d="M902.848 42.1402C902.935 42.1402 902.978 42.2715 902.978 42.5341C902.978 42.7966 902.935 42.9279 902.848 42.9279H893.409C892.367 42.9279 890.392 41.0681 887.485 37.3486C884.62 33.5853 881.192 28.4436 877.199 21.9234C876.201 22.1422 875.246 22.2516 874.335 22.2516C873.51 22.2516 872.447 22.2079 871.145 22.1203V37.6111C871.145 38.9239 871.275 39.9085 871.535 40.5649C871.796 41.1775 872.273 41.5932 872.968 41.812C873.705 42.0308 874.855 42.1402 876.418 42.1402C876.548 42.1402 876.613 42.2715 876.613 42.5341C876.613 42.7966 876.548 42.9279 876.418 42.9279C875.073 42.9279 874.009 42.906 873.228 42.8623L868.541 42.7966L863.984 42.8623C863.159 42.906 862.053 42.9279 860.664 42.9279C860.534 42.9279 860.469 42.7966 860.469 42.5341C860.469 42.2715 860.534 42.1402 860.664 42.1402C862.226 42.1402 863.376 42.0308 864.114 41.812C864.852 41.5932 865.351 41.1775 865.611 40.5649C865.872 39.9085 866.002 38.9239 866.002 37.6111V7.22029C866.002 5.90751 865.872 4.94481 865.611 4.33218C865.351 3.71954 864.852 3.30383 864.114 3.08503C863.42 2.82248 862.291 2.6912 860.729 2.6912C860.642 2.6912 860.599 2.55992 860.599 2.29737C860.599 2.03481 860.642 1.90353 860.729 1.90353L863.984 1.96917C865.893 2.05669 867.412 2.10045 868.541 2.10045C869.322 2.10045 870.06 2.07857 870.754 2.03481C871.449 1.99105 872.056 1.94729 872.577 1.90353C874.009 1.77225 875.355 1.70661 876.613 1.70661C880.302 1.70661 883.145 2.45052 885.141 3.93834C887.138 5.3824 888.136 7.39533 888.136 9.97713C888.136 12.0338 887.528 13.9811 886.313 15.819C885.098 17.6569 883.514 19.1447 881.561 20.2824C885.206 25.8399 888.244 30.1939 890.674 33.3446C893.148 36.4515 895.34 38.7051 897.25 40.1054C899.159 41.462 901.025 42.1402 902.848 42.1402ZM871.145 20.4137C872.794 20.5888 874.074 20.6763 874.986 20.6763C877.763 20.6763 879.738 20.0636 880.91 18.8384C882.125 17.5694 882.732 15.4033 882.732 12.3401C882.732 8.88314 882.081 6.43262 880.78 4.98856C879.478 3.54451 877.676 2.82248 875.376 2.82248C874.248 2.82248 873.38 2.93188 872.772 3.15067C872.208 3.36947 871.796 3.80706 871.535 4.46345C871.275 5.07608 871.145 6.03879 871.145 7.35156V20.4137Z" fill="#774F4D"/>
<path d="M911.056 9.2551C911.056 10.918 911.468 12.3839 912.293 13.6529C913.118 14.8782 914.116 15.9503 915.288 16.8692C916.459 17.7444 918.087 18.8165 920.17 20.0855C922.34 21.4421 924.054 22.6236 925.313 23.63C926.615 24.5927 927.722 25.7961 928.633 27.2402C929.544 28.6842 930 30.3909 930 32.36C930 34.5042 929.436 36.4515 928.307 38.2019C927.222 39.9085 925.638 41.265 923.555 42.2715C921.515 43.2342 919.128 43.7156 916.394 43.7156C914.658 43.7156 912.944 43.4968 911.251 43.0592C909.559 42.6653 908.083 42.0746 906.825 41.2869C906.608 41.1556 906.456 41.0025 906.369 40.8274C906.282 40.6524 906.239 40.3899 906.239 40.0398L905.588 30.6534C905.544 30.4784 905.631 30.369 905.848 30.3252C906.109 30.2815 906.261 30.3471 906.304 30.5221C907.346 33.8478 908.799 36.6703 910.666 38.9896C912.532 41.3088 914.962 42.4684 917.957 42.4684C919.996 42.4684 921.689 41.9214 923.034 40.8274C924.423 39.6897 925.118 37.8518 925.118 35.3138C925.118 33.3884 924.684 31.7036 923.816 30.2596C922.948 28.8155 921.884 27.6121 920.626 26.6494C919.411 25.643 917.761 24.5052 915.678 23.2362C913.638 21.9234 912.011 20.8076 910.796 19.8886C909.624 18.9259 908.626 17.7663 907.801 16.4097C906.977 15.0094 906.564 13.3904 906.564 11.5525C906.564 9.32074 907.15 7.41721 908.322 5.84187C909.537 4.26654 911.1 3.10691 913.009 2.363C914.962 1.57534 917.002 1.1815 919.128 1.1815C922.036 1.1815 924.662 1.68473 927.005 2.6912C927.656 2.95375 927.982 3.34759 927.982 3.8727L928.307 12.0776C928.307 12.2526 928.199 12.362 927.982 12.4058C927.765 12.4495 927.635 12.3839 927.591 12.2089C927.114 9.84585 926.094 7.61412 924.532 5.51367C922.969 3.36947 920.756 2.29737 917.892 2.29737C915.722 2.29737 914.029 2.95376 912.814 4.26653C911.642 5.57931 911.056 7.24217 911.056 9.2551Z" fill="#774F4D"/>
</svg>
