<svg width="930" height="57" viewBox="0 0 930 57" fill="none" xmlns="http://www.w3.org/2000/svg">
<path d="M14.4904 48.1456C14.4904 49.7767 14.6386 50.9709 14.9349 51.7282C15.2905 52.4272 15.9128 52.9223 16.8018 53.2136C17.6908 53.4466 19.0835 53.5631 20.98 53.5631H28.5364C32.2701 53.5631 35.3519 52.4854 37.7818 50.3301C40.2709 48.1165 41.9304 45.1456 42.7601 41.4175C42.7601 41.2427 42.9083 41.1845 43.2046 41.2427C43.5602 41.2427 43.738 41.3301 43.738 41.5049C43.2046 46.6311 42.9379 50.8835 42.9379 54.2621C42.9379 54.7282 42.8194 55.0777 42.5823 55.3107C42.4045 55.4854 42.0785 55.5728 41.6044 55.5728H0.177796C0.0592655 55.5728 0 55.3981 0 55.0485C0 54.699 0.0592655 54.5243 0.177796 54.5243C2.31136 54.5243 3.85226 54.3786 4.80051 54.0874C5.80802 53.7961 6.48958 53.2427 6.84517 52.4272C7.20076 51.5534 7.37856 50.2427 7.37856 48.4951V8.03883C7.37856 6.29126 7.20076 5.00971 6.84517 4.19418C6.48958 3.37864 5.80802 2.82524 4.80051 2.53398C3.85226 2.18447 2.31136 2.00971 0.177796 2.00971C0.0592655 2.00971 0 1.83495 0 1.48544C0 1.13592 0.0592655 0.961168 0.177796 0.961168L4.62271 1.04855C7.2304 1.16505 9.33432 1.2233 10.9345 1.2233C12.5347 1.2233 14.6386 1.16505 17.2463 1.04855L21.6912 0.961168C21.8097 0.961168 21.869 1.13592 21.869 1.48544C21.869 1.83495 21.8097 2.00971 21.6912 2.00971C19.6169 2.00971 18.076 2.18447 17.0685 2.53398C16.061 2.82524 15.3794 3.40777 15.0238 4.28156C14.6682 5.09709 14.4904 6.37864 14.4904 8.12621V48.1456Z" fill="white"/>
<path d="M107.666 54.5243C107.903 54.5243 108.021 54.699 108.021 55.0485C108.021 55.3981 107.903 55.5728 107.666 55.5728C106.54 55.5728 104.732 55.5146 102.243 55.3981C99.8722 55.2816 98.1238 55.2233 96.9978 55.2233C95.6347 55.2233 93.9456 55.2816 91.9306 55.3981C89.9156 55.5146 88.4043 55.5728 87.3968 55.5728C87.1597 55.5728 87.0412 55.3981 87.0412 55.0485C87.0412 54.699 87.1597 54.5243 87.3968 54.5243C89.4118 54.5243 90.8638 54.3495 91.7528 54C92.6418 53.5922 93.0863 52.8932 93.0863 51.9029C93.0863 50.9126 92.6418 49.5437 91.7528 47.7961L81.7962 27.5243H65.4389L58.1492 44.0388C57.3195 45.9612 56.9046 47.5631 56.9046 48.8447C56.9046 52.6311 59.779 54.5243 65.5278 54.5243C65.8241 54.5243 65.9723 54.699 65.9723 55.0485C65.9723 55.3981 65.8241 55.5728 65.5278 55.5728C64.461 55.5728 62.9201 55.5146 60.9051 55.3981C58.653 55.2816 56.6972 55.2233 55.0378 55.2233C53.4969 55.2233 51.6596 55.2816 49.5261 55.3981C47.6296 55.5146 46.0887 55.5728 44.9034 55.5728C44.6663 55.5728 44.5478 55.3981 44.5478 55.0485C44.5478 54.699 44.6663 54.5243 44.9034 54.5243C46.5628 54.5243 47.9555 54.2039 49.0816 53.5631C50.2669 52.9223 51.3929 51.8155 52.4597 50.2427C53.5265 48.6699 54.7414 46.3398 56.1046 43.2524L75.0399 0.349515C75.0992 0.174757 75.3066 0.0873775 75.6622 0.0873775C76.0178 0.0291258 76.2252 0.116505 76.2845 0.349515L97.709 43.6019C99.724 47.8544 101.443 50.7379 102.865 52.2524C104.287 53.767 105.888 54.5243 107.666 54.5243ZM66.239 25.5146H80.8183L73.173 9.78641L66.239 25.5146Z" fill="white"/>
<path d="M165.665 0C168.392 0 171.207 0.262136 174.111 0.786408C177.015 1.25243 179.326 1.92233 181.045 2.79612C181.519 3.02913 181.815 3.29126 181.934 3.58252C182.112 3.81553 182.26 4.25243 182.378 4.8932L183.356 15.466C183.356 15.6408 183.208 15.7573 182.912 15.8155C182.615 15.8155 182.438 15.7282 182.378 15.5534C180.837 11.0097 178.319 7.63107 174.822 5.41748C171.325 3.14563 167.117 2.00971 162.198 2.00971C157.872 2.00971 154.109 3 150.908 4.98058C147.708 6.90291 145.249 9.64078 143.53 13.1942C141.87 16.7476 141.041 20.8544 141.041 25.5146C141.041 30.932 142.107 35.9126 144.241 40.4563C146.375 45 149.249 48.6117 152.864 51.2913C156.539 53.9126 160.539 55.2233 164.865 55.2233C173.4 55.2233 179.504 50.4175 183.178 40.8058C183.178 40.6311 183.297 40.5437 183.534 40.5437C183.712 40.5437 183.86 40.5728 183.979 40.6311C184.156 40.6893 184.245 40.7767 184.245 40.8932L183.001 51.466C182.882 52.165 182.734 52.6311 182.556 52.8641C182.438 53.0388 182.112 53.2427 181.578 53.4757C176.126 55.5728 170.555 56.6214 164.865 56.6214C157.694 56.6214 151.708 55.2233 146.908 52.4272C142.107 49.5728 138.581 45.9612 136.329 41.5922C134.077 37.2233 132.951 32.6505 132.951 27.8738C132.951 22.4563 134.462 17.6505 137.485 13.4563C140.567 9.20389 144.597 5.91262 149.575 3.58252C154.612 1.19417 159.976 0 165.665 0Z" fill="white"/>
<path d="M250.736 54.5243C250.973 54.5243 251.092 54.699 251.092 55.0485C251.092 55.3981 250.973 55.5728 250.736 55.5728C249.61 55.5728 247.803 55.5146 245.313 55.3981C242.943 55.2816 241.195 55.2233 240.068 55.2233C238.705 55.2233 237.016 55.2816 235.001 55.3981C232.986 55.5146 231.475 55.5728 230.467 55.5728C230.23 55.5728 230.112 55.3981 230.112 55.0485C230.112 54.699 230.23 54.5243 230.467 54.5243C232.483 54.5243 233.935 54.3495 234.824 54C235.712 53.5922 236.157 52.8932 236.157 51.9029C236.157 50.9126 235.712 49.5437 234.824 47.7961L224.867 27.5243H208.51L201.22 44.0388C200.39 45.9612 199.975 47.5631 199.975 48.8447C199.975 52.6311 202.85 54.5243 208.598 54.5243C208.895 54.5243 209.043 54.699 209.043 55.0485C209.043 55.3981 208.895 55.5728 208.598 55.5728C207.532 55.5728 205.991 55.5146 203.976 55.3981C201.724 55.2816 199.768 55.2233 198.108 55.2233C196.568 55.2233 194.73 55.2816 192.597 55.3981C190.7 55.5146 189.159 55.5728 187.974 55.5728C187.737 55.5728 187.618 55.3981 187.618 55.0485C187.618 54.699 187.737 54.5243 187.974 54.5243C189.634 54.5243 191.026 54.2039 192.152 53.5631C193.338 52.9223 194.464 51.8155 195.53 50.2427C196.597 48.6699 197.812 46.3398 199.175 43.2524L218.111 0.349515C218.17 0.174757 218.377 0.0873775 218.733 0.0873775C219.089 0.0291258 219.296 0.116505 219.355 0.349515L240.78 43.6019C242.795 47.8544 244.513 50.7379 245.936 52.2524C247.358 53.767 248.958 54.5243 250.736 54.5243ZM209.31 25.5146H223.889L216.244 9.78641L209.31 25.5146Z" fill="white"/>
<path d="M264.52 10.7476C264.52 12.9612 265.083 14.9126 266.209 16.6019C267.336 18.233 268.699 19.6602 270.299 20.8835C271.899 22.0485 274.121 23.4757 276.966 25.165C279.929 26.9709 282.27 28.5437 283.989 29.8835C285.767 31.165 287.278 32.767 288.523 34.6893C289.768 36.6116 290.39 38.8835 290.39 41.5049C290.39 44.3592 289.619 46.9515 288.078 49.2816C286.597 51.5534 284.434 53.3592 281.589 54.699C278.803 55.9806 275.544 56.6214 271.81 56.6214C269.439 56.6214 267.098 56.3301 264.787 55.7476C262.476 55.2233 260.461 54.4369 258.742 53.3883C258.446 53.2136 258.238 53.0097 258.12 52.7767C258.001 52.5437 257.942 52.1942 257.942 51.7282L257.053 39.233C256.994 39 257.112 38.8544 257.409 38.7961C257.764 38.7379 257.972 38.8252 258.031 39.0583C259.453 43.4854 261.439 47.2427 263.987 50.3301C266.535 53.4175 269.854 54.9612 273.944 54.9612C276.729 54.9612 279.04 54.233 280.878 52.7767C282.774 51.2621 283.722 48.8155 283.722 45.4369C283.722 42.8738 283.13 40.6311 281.944 38.7087C280.759 36.7864 279.307 35.1845 277.588 33.9029C275.929 32.5631 273.677 31.0485 270.832 29.3592C268.047 27.6117 265.824 26.1262 264.165 24.9029C262.565 23.6214 261.202 22.0777 260.075 20.2718C258.949 18.4078 258.386 16.2524 258.386 13.8058C258.386 10.835 259.186 8.30097 260.787 6.20389C262.446 4.1068 264.58 2.56311 267.187 1.57282C269.854 0.524272 272.64 0 275.544 0C279.515 0 283.1 0.669903 286.3 2.00971C287.189 2.35922 287.634 2.88349 287.634 3.58252L288.078 14.5049C288.078 14.7379 287.93 14.8835 287.634 14.9417C287.338 15 287.16 14.9126 287.101 14.6796C286.449 11.534 285.056 8.56311 282.922 5.76699C280.789 2.91262 277.766 1.48544 273.855 1.48544C270.891 1.48544 268.58 2.35922 266.921 4.10679C265.32 5.85437 264.52 8.06796 264.52 10.7476Z" fill="white"/>
<path d="M357.866 54.5243C358.103 54.5243 358.221 54.699 358.221 55.0485C358.221 55.3981 358.103 55.5728 357.866 55.5728C356.74 55.5728 354.932 55.5146 352.443 55.3981C350.072 55.2816 348.324 55.2233 347.198 55.2233C345.835 55.2233 344.146 55.2816 342.131 55.3981C340.116 55.5146 338.604 55.5728 337.597 55.5728C337.36 55.5728 337.241 55.3981 337.241 55.0485C337.241 54.699 337.36 54.5243 337.597 54.5243C339.612 54.5243 341.064 54.3495 341.953 54C342.842 53.5922 343.286 52.8932 343.286 51.9029C343.286 50.9126 342.842 49.5437 341.953 47.7961L331.996 27.5243H315.639L308.349 44.0388C307.52 45.9612 307.105 47.5631 307.105 48.8447C307.105 52.6311 309.979 54.5243 315.728 54.5243C316.024 54.5243 316.172 54.699 316.172 55.0485C316.172 55.3981 316.024 55.5728 315.728 55.5728C314.661 55.5728 313.12 55.5146 311.105 55.3981C308.853 55.2816 306.897 55.2233 305.238 55.2233C303.697 55.2233 301.86 55.2816 299.726 55.3981C297.83 55.5146 296.289 55.5728 295.104 55.5728C294.866 55.5728 294.748 55.3981 294.748 55.0485C294.748 54.699 294.866 54.5243 295.104 54.5243C296.763 54.5243 298.156 54.2039 299.282 53.5631C300.467 52.9223 301.593 51.8155 302.66 50.2427C303.727 48.6699 304.942 46.3398 306.305 43.2524L325.24 0.349515C325.299 0.174757 325.507 0.0873775 325.862 0.0873775C326.218 0.0291258 326.425 0.116505 326.485 0.349515L347.909 43.6019C349.924 47.8544 351.643 50.7379 353.065 52.2524C354.488 53.767 356.088 54.5243 357.866 54.5243ZM316.439 25.5146H331.018L323.373 9.78641L316.439 25.5146Z" fill="white"/>
<path d="M406.353 55.9223C404.576 55.9223 402.531 55.8349 400.22 55.6602C399.331 55.6019 398.234 55.5437 396.93 55.4854C395.626 55.4272 394.174 55.3981 392.574 55.3981L386.351 55.4854C385.225 55.5437 383.684 55.5728 381.729 55.5728C381.61 55.5728 381.551 55.3981 381.551 55.0485C381.551 54.699 381.61 54.5243 381.729 54.5243C383.862 54.5243 385.433 54.3786 386.44 54.0874C387.448 53.7961 388.129 53.2427 388.485 52.4272C388.841 51.5534 389.018 50.2427 389.018 48.4951V8.03883C389.018 6.29126 388.841 5.00971 388.485 4.19418C388.129 3.37864 387.448 2.82524 386.44 2.53398C385.492 2.18447 383.981 2.00971 381.906 2.00971C381.729 2.00971 381.64 1.83495 381.64 1.48544C381.64 1.13592 381.729 0.961168 381.906 0.961168L386.351 1.04855C388.959 1.16505 391.033 1.2233 392.574 1.2233C394.826 1.2233 397.108 1.13592 399.419 0.961168C402.264 0.844661 404.161 0.786408 405.109 0.786408C411.213 0.786408 416.636 1.95146 421.377 4.28156C426.119 6.61165 429.793 9.78641 432.401 13.8058C435.008 17.8252 436.312 22.3398 436.312 27.3495C436.312 33 434.949 38.0097 432.223 42.3786C429.556 46.6893 425.941 50.0388 421.377 52.4272C416.814 54.7573 411.806 55.9223 406.353 55.9223ZM405.465 54.3495C409.909 54.3495 413.821 53.3883 417.199 51.466C420.636 49.4854 423.303 46.6311 425.2 42.9029C427.156 39.1165 428.134 34.5728 428.134 29.2718C428.134 24.2039 427.215 19.6311 425.378 15.5534C423.6 11.4175 421.022 8.18447 417.644 5.85437C414.325 3.46602 410.443 2.27185 405.998 2.27185C403.449 2.27185 401.494 2.41748 400.131 2.70874C398.767 3 397.76 3.58252 397.108 4.45631C396.456 5.27184 396.13 6.52427 396.13 8.21359V47.534C396.13 50.0388 396.752 51.8155 397.997 52.8641C399.301 53.8544 401.79 54.3495 405.465 54.3495Z" fill="white"/>
<path d="M483.543 42.2913C483.543 42.1748 483.661 42.1165 483.898 42.1165C484.076 42.1165 484.224 42.1748 484.343 42.2913C484.521 42.3495 484.61 42.4078 484.61 42.466C484.017 46.6602 483.721 50.5922 483.721 54.2621C483.721 54.7282 483.632 55.0777 483.454 55.3107C483.276 55.4854 482.921 55.5728 482.387 55.5728H444.517C444.339 55.5728 444.25 55.3981 444.25 55.0485C444.25 54.699 444.339 54.5243 444.517 54.5243C446.65 54.5243 448.191 54.3786 449.139 54.0874C450.088 53.7961 450.739 53.2427 451.095 52.4272C451.451 51.5534 451.628 50.2427 451.628 48.4951V8.03883C451.628 6.29126 451.451 5.00971 451.095 4.19418C450.739 3.37864 450.058 2.82524 449.05 2.53398C448.102 2.18447 446.591 2.00971 444.517 2.00971C444.339 2.00971 444.25 1.83495 444.25 1.48544C444.25 1.13592 444.339 0.961168 444.517 0.961168H480.787C481.38 0.961168 481.676 1.2233 481.676 1.74757L481.854 12.7573C481.854 12.932 481.676 13.0485 481.32 13.1068C481.024 13.1068 480.846 13.0194 480.787 12.8447C480.372 9.64078 479.217 7.2233 477.32 5.59223C475.424 3.90291 472.934 3.05825 469.853 3.05825H465.319C462.711 3.05825 460.963 3.4369 460.074 4.19418C459.185 4.8932 458.74 6.29126 458.74 8.38835V26.1262H468.519C471.542 26.1262 473.764 25.6311 475.186 24.6408C476.609 23.5922 477.32 21.9903 477.32 19.835C477.32 19.7184 477.468 19.6602 477.765 19.6602C478.12 19.6602 478.298 19.7184 478.298 19.835L478.209 27.1748L478.298 31.1068C478.416 32.9709 478.476 34.4272 478.476 35.4757C478.476 35.5922 478.298 35.6505 477.942 35.6505C477.587 35.6505 477.409 35.5922 477.409 35.4757C477.409 32.9709 476.668 31.1359 475.186 29.9709C473.764 28.7476 471.453 28.1359 468.252 28.1359H458.74V48.1456C458.74 50.2427 459.126 51.6699 459.896 52.4272C460.726 53.1845 462.355 53.5631 464.785 53.5631H470.564C473.942 53.5631 476.727 52.6019 478.92 50.6796C481.172 48.699 482.713 45.9029 483.543 42.2913Z" fill="white"/>
<path d="M506.122 48.1456C506.122 49.7767 506.271 50.9709 506.567 51.7282C506.922 52.4272 507.545 52.9223 508.434 53.2136C509.323 53.4466 510.715 53.5631 512.612 53.5631H520.168C523.902 53.5631 526.984 52.4854 529.414 50.3301C531.903 48.1165 533.562 45.1456 534.392 41.4175C534.392 41.2427 534.54 41.1845 534.837 41.2427C535.192 41.2427 535.37 41.3301 535.37 41.5049C534.837 46.6311 534.57 50.8835 534.57 54.2621C534.57 54.7282 534.451 55.0777 534.214 55.3107C534.036 55.4854 533.711 55.5728 533.236 55.5728H491.81C491.691 55.5728 491.632 55.3981 491.632 55.0485C491.632 54.699 491.691 54.5243 491.81 54.5243C493.943 54.5243 495.484 54.3786 496.432 54.0874C497.44 53.7961 498.122 53.2427 498.477 52.4272C498.833 51.5534 499.011 50.2427 499.011 48.4951V8.03883C499.011 6.29126 498.833 5.00971 498.477 4.19418C498.122 3.37864 497.44 2.82524 496.432 2.53398C495.484 2.18447 493.943 2.00971 491.81 2.00971C491.691 2.00971 491.632 1.83495 491.632 1.48544C491.632 1.13592 491.691 0.961168 491.81 0.961168L496.255 1.04855C498.862 1.16505 500.966 1.2233 502.566 1.2233C504.167 1.2233 506.271 1.16505 508.878 1.04855L513.323 0.961168C513.442 0.961168 513.501 1.13592 513.501 1.48544C513.501 1.83495 513.442 2.00971 513.323 2.00971C511.249 2.00971 509.708 2.18447 508.7 2.53398C507.693 2.82524 507.011 3.40777 506.656 4.28156C506.3 5.09709 506.122 6.37864 506.122 8.12621V48.1456Z" fill="white"/>
<path d="M621.911 54.5243C622.089 54.5243 622.178 54.699 622.178 55.0485C622.178 55.3981 622.089 55.5728 621.911 55.5728C620.015 55.5728 618.503 55.5437 617.377 55.4854L610.977 55.3981L603.954 55.4854C602.946 55.5437 601.553 55.5728 599.775 55.5728C599.598 55.5728 599.509 55.3981 599.509 55.0485C599.509 54.699 599.598 54.5243 599.775 54.5243C602.027 54.5243 603.687 54.3786 604.754 54.0874C605.82 53.7961 606.532 53.2427 606.887 52.4272C607.243 51.5534 607.421 50.2427 607.421 48.4951V28.1359H575.062V48.4951C575.062 50.2427 575.239 51.5534 575.595 52.4272C575.951 53.2427 576.662 53.7961 577.729 54.0874C578.795 54.3786 580.455 54.5243 582.707 54.5243C582.825 54.5243 582.885 54.699 582.885 55.0485C582.885 55.3981 582.825 55.5728 582.707 55.5728C580.81 55.5728 579.299 55.5437 578.173 55.4854L571.328 55.3981L565.016 55.4854C563.89 55.5437 562.349 55.5728 560.393 55.5728C560.275 55.5728 560.216 55.3981 560.216 55.0485C560.216 54.699 560.275 54.5243 560.393 54.5243C562.586 54.5243 564.186 54.3786 565.194 54.0874C566.261 53.7961 566.972 53.2427 567.328 52.4272C567.742 51.5534 567.95 50.2427 567.95 48.4951V8.03883C567.95 6.29126 567.772 5.00971 567.416 4.19418C567.061 3.37864 566.379 2.82524 565.372 2.53398C564.364 2.18447 562.764 2.00971 560.571 2.00971C560.393 2.00971 560.305 1.83495 560.305 1.48544C560.305 1.13592 560.393 0.961168 560.571 0.961168L565.105 1.04855C567.594 1.16505 569.668 1.2233 571.328 1.2233C573.224 1.2233 575.536 1.16505 578.262 1.04855L582.707 0.961168C582.825 0.961168 582.885 1.13592 582.885 1.48544C582.885 1.83495 582.825 2.00971 582.707 2.00971C580.514 2.00971 578.884 2.18447 577.818 2.53398C576.751 2.8835 576.01 3.49515 575.595 4.36893C575.239 5.18447 575.062 6.46602 575.062 8.21359V26.1262H607.421V8.21359C607.421 6.46602 607.213 5.18447 606.798 4.36893C606.443 3.49515 605.732 2.8835 604.665 2.53398C603.657 2.18447 602.027 2.00971 599.775 2.00971C599.598 2.00971 599.509 1.83495 599.509 1.48544C599.509 1.13592 599.598 0.961168 599.775 0.961168L603.954 1.04855C606.68 1.16505 609.021 1.2233 610.977 1.2233C612.636 1.2233 614.77 1.16505 617.377 1.04855L621.911 0.961168C622.089 0.961168 622.178 1.13592 622.178 1.48544C622.178 1.83495 622.089 2.00971 621.911 2.00971C619.718 2.00971 618.118 2.18447 617.111 2.53398C616.103 2.82524 615.392 3.37864 614.977 4.19418C614.621 5.00971 614.444 6.29126 614.444 8.03883V48.4951C614.444 50.2427 614.621 51.5534 614.977 52.4272C615.392 53.2427 616.103 53.7961 617.111 54.0874C618.118 54.3786 619.718 54.5243 621.911 54.5243Z" fill="white"/>
<path d="M687.762 54.5243C687.999 54.5243 688.117 54.699 688.117 55.0485C688.117 55.3981 687.999 55.5728 687.762 55.5728C686.636 55.5728 684.828 55.5146 682.339 55.3981C679.968 55.2816 678.22 55.2233 677.094 55.2233C675.731 55.2233 674.042 55.2816 672.027 55.3981C670.012 55.5146 668.5 55.5728 667.493 55.5728C667.256 55.5728 667.137 55.3981 667.137 55.0485C667.137 54.699 667.256 54.5243 667.493 54.5243C669.508 54.5243 670.96 54.3495 671.849 54C672.738 53.5922 673.182 52.8932 673.182 51.9029C673.182 50.9126 672.738 49.5437 671.849 47.7961L661.892 27.5243H645.535L638.245 44.0388C637.416 45.9612 637.001 47.5631 637.001 48.8447C637.001 52.6311 639.875 54.5243 645.624 54.5243C645.92 54.5243 646.068 54.699 646.068 55.0485C646.068 55.3981 645.92 55.5728 645.624 55.5728C644.557 55.5728 643.016 55.5146 641.001 55.3981C638.749 55.2816 636.793 55.2233 635.134 55.2233C633.593 55.2233 631.756 55.2816 629.622 55.3981C627.726 55.5146 626.185 55.5728 625 55.5728C624.763 55.5728 624.644 55.3981 624.644 55.0485C624.644 54.699 624.763 54.5243 625 54.5243C626.659 54.5243 628.052 54.2039 629.178 53.5631C630.363 52.9223 631.489 51.8155 632.556 50.2427C633.623 48.6699 634.838 46.3398 636.201 43.2524L655.136 0.349515C655.195 0.174757 655.403 0.0873775 655.758 0.0873775C656.114 0.0291258 656.321 0.116505 656.381 0.349515L677.805 43.6019C679.82 47.8544 681.539 50.7379 682.961 52.2524C684.384 53.767 685.984 54.5243 687.762 54.5243ZM646.335 25.5146H660.914L653.269 9.78641L646.335 25.5146Z" fill="white"/>
<path d="M718.17 24.8155C722.911 25.2233 726.734 26.7961 729.638 29.534C732.542 32.2718 733.994 35.6214 733.994 39.5825C733.994 42.6699 733.164 45.466 731.505 47.9709C729.904 50.4175 727.682 52.3689 724.837 53.8252C722.052 55.2233 718.911 55.9223 715.414 55.9223C713.518 55.9223 711.443 55.8349 709.191 55.6602C708.361 55.6019 707.384 55.5437 706.258 55.4854C705.131 55.4272 703.857 55.3981 702.435 55.3981L696.212 55.4854C695.086 55.5437 693.575 55.5728 691.678 55.5728C691.5 55.5728 691.411 55.3981 691.411 55.0485C691.411 54.699 691.5 54.5243 691.678 54.5243C693.752 54.5243 695.264 54.3786 696.212 54.0874C697.219 53.7379 697.931 53.1553 698.346 52.3398C698.76 51.5243 698.968 50.2427 698.968 48.4951V8.03883C698.968 6.29126 698.76 5.00971 698.346 4.19418C697.99 3.37864 697.308 2.82524 696.301 2.53398C695.353 2.18447 693.841 2.00971 691.767 2.00971C691.649 2.00971 691.589 1.83495 691.589 1.48544C691.589 1.13592 691.649 0.961168 691.767 0.961168L696.212 1.04855C698.82 1.16505 700.894 1.2233 702.435 1.2233C704.035 1.2233 705.783 1.13592 707.68 0.961168C708.332 0.902913 709.102 0.84466 709.991 0.786408C710.939 0.728156 711.947 0.69903 713.014 0.69903C718.111 0.69903 721.992 1.74757 724.659 3.84466C727.326 5.8835 728.66 8.65049 728.66 12.1456C728.66 14.9417 727.741 17.4757 725.904 19.7476C724.067 21.9612 721.489 23.6505 718.17 24.8155ZM711.325 2.18447C709.902 2.18447 708.806 2.3301 708.035 2.62136C707.324 2.91262 706.791 3.49515 706.435 4.36893C706.139 5.18447 705.991 6.46602 705.991 8.21359V24.8155L709.902 24.9029C713.814 24.9029 716.747 23.7961 718.703 21.5825C720.659 19.3689 721.637 16.4563 721.637 12.8447C721.637 9.52427 720.778 6.93204 719.059 5.06796C717.399 3.14563 714.821 2.18447 711.325 2.18447ZM713.992 54.1748C718.199 54.1748 721.311 53.0971 723.326 50.9417C725.4 48.7864 726.437 45.699 726.437 41.6796C726.437 37.2524 725.193 33.699 722.704 31.0194C720.215 28.3398 716.688 26.9709 712.125 26.9126C710.525 26.8544 708.48 26.9126 705.991 27.0874V48.4951C705.991 49.9515 706.198 51.0874 706.613 51.9029C707.028 52.6602 707.798 53.2427 708.924 53.6505C710.05 54 711.74 54.1748 713.992 54.1748Z" fill="white"/>
<path d="M801.229 54.5243C801.466 54.5243 801.584 54.699 801.584 55.0485C801.584 55.3981 801.466 55.5728 801.229 55.5728C800.103 55.5728 798.295 55.5146 795.806 55.3981C793.435 55.2816 791.687 55.2233 790.561 55.2233C789.198 55.2233 787.509 55.2816 785.494 55.3981C783.479 55.5146 781.967 55.5728 780.96 55.5728C780.723 55.5728 780.604 55.3981 780.604 55.0485C780.604 54.699 780.723 54.5243 780.96 54.5243C782.975 54.5243 784.427 54.3495 785.316 54C786.205 53.5922 786.649 52.8932 786.649 51.9029C786.649 50.9126 786.205 49.5437 785.316 47.7961L775.359 27.5243H759.002L751.712 44.0388C750.883 45.9612 750.468 47.5631 750.468 48.8447C750.468 52.6311 753.342 54.5243 759.091 54.5243C759.387 54.5243 759.535 54.699 759.535 55.0485C759.535 55.3981 759.387 55.5728 759.091 55.5728C758.024 55.5728 756.483 55.5146 754.468 55.3981C752.216 55.2816 750.26 55.2233 748.601 55.2233C747.06 55.2233 745.223 55.2816 743.089 55.3981C741.193 55.5146 739.652 55.5728 738.466 55.5728C738.229 55.5728 738.111 55.3981 738.111 55.0485C738.111 54.699 738.229 54.5243 738.466 54.5243C740.126 54.5243 741.519 54.2039 742.645 53.5631C743.83 52.9223 744.956 51.8155 746.023 50.2427C747.09 48.6699 748.305 46.3398 749.668 43.2524L768.603 0.349515C768.662 0.174757 768.87 0.0873775 769.225 0.0873775C769.581 0.0291258 769.788 0.116505 769.848 0.349515L791.272 43.6019C793.287 47.8544 795.006 50.7379 796.428 52.2524C797.851 53.767 799.451 54.5243 801.229 54.5243ZM759.802 25.5146H774.381L766.736 9.78641L759.802 25.5146Z" fill="white"/>
<path d="M864.44 0.961168C864.618 0.961168 864.707 1.13592 864.707 1.48544C864.707 1.83495 864.618 2.00971 864.44 2.00971C859.581 2.00971 857.151 5.03884 857.151 11.0971V56.7087C857.151 56.8252 857.002 56.9126 856.706 56.9709C856.469 57.0291 856.291 57 856.173 56.8835L814.479 8.30097V45.5243C814.479 48.6116 815.042 50.8835 816.168 52.3398C817.354 53.7961 819.132 54.5243 821.502 54.5243C821.68 54.5243 821.769 54.699 821.769 55.0485C821.769 55.3981 821.68 55.5728 821.502 55.5728C819.961 55.5728 818.776 55.5437 817.946 55.4854L813.413 55.3981L808.612 55.4854C807.723 55.5437 806.419 55.5728 804.701 55.5728C804.582 55.5728 804.523 55.3981 804.523 55.0485C804.523 54.699 804.582 54.5243 804.701 54.5243C807.249 54.5243 809.116 53.7961 810.301 52.3398C811.546 50.8835 812.168 48.6116 812.168 45.5243V5.85437C809.56 3.29126 806.982 2.00971 804.434 2.00971C804.256 2.00971 804.167 1.83495 804.167 1.48544C804.167 1.13592 804.256 0.961168 804.434 0.961168L807.901 1.04855C808.612 1.1068 809.62 1.13592 810.923 1.13592L815.546 1.04855C816.08 0.990294 816.761 0.961168 817.591 0.961168C818.065 0.961168 818.391 1.07767 818.569 1.31068C818.806 1.48544 819.161 1.92233 819.635 2.62136C820.169 3.4369 820.91 4.39806 821.858 5.50486L854.928 44.7379V11.0971C854.928 8.00971 854.365 5.73786 853.239 4.28156C852.113 2.76699 850.365 2.00971 847.994 2.00971C847.876 2.00971 847.816 1.83495 847.816 1.48544C847.816 1.13592 847.876 0.961168 847.994 0.961168L851.55 1.04855C853.328 1.16505 854.839 1.2233 856.084 1.2233C857.151 1.2233 858.691 1.16505 860.706 1.04855L864.44 0.961168Z" fill="white"/>
<path d="M898.797 56.6214C893.285 56.6214 888.366 55.3689 884.04 52.8641C879.772 50.301 876.454 46.8641 874.083 42.5534C871.772 38.1845 870.616 33.4369 870.616 28.3107C870.616 22.3107 872.157 17.1845 875.239 12.932C878.32 8.62136 882.262 5.38835 887.062 3.23301C891.922 1.07767 896.871 0 901.908 0C907.538 0 912.487 1.31068 916.754 3.93204C921.021 6.49514 924.281 9.90291 926.533 14.1553C928.844 18.4078 930 22.9223 930 27.699C930 33 928.578 37.8641 925.733 42.2913C922.888 46.7184 919.065 50.2136 914.265 52.7767C909.524 55.3398 904.368 56.6214 898.797 56.6214ZM901.908 54.699C905.701 54.699 909.109 53.7379 912.131 51.8155C915.154 49.8932 917.525 47.0971 919.243 43.4272C921.021 39.699 921.91 35.2718 921.91 30.1456C921.91 24.7282 920.932 19.8932 918.977 15.6408C917.08 11.3883 914.324 8.06796 910.709 5.67961C907.153 3.29126 903.005 2.09709 898.263 2.09709C892.1 2.09709 887.299 4.16505 883.862 8.30097C880.424 12.3786 878.706 18.0291 878.706 25.2524C878.706 30.7864 879.684 35.7961 881.639 40.2816C883.595 44.767 886.321 48.2913 889.818 50.8544C893.374 53.4175 897.404 54.699 901.908 54.699Z" fill="white"/>
</svg>
